<?xml version="1.0" standalone="no"?>
<!DOCTYPE svg PUBLIC "-//W3C//DTD SVG 20010904//EN"
 "http://www.w3.org/TR/2001/REC-SVG-20010904/DTD/svg10.dtd">
<svg version="1.0" xmlns="http://www.w3.org/2000/svg"
 width="625.000000pt" height="524.000000pt" viewBox="0 0 625.000000 524.000000"
 preserveAspectRatio="xMidYMid meet">
<metadata>
Created by potrace 1.16, written by Peter Selinger 2001-2019
</metadata>
<g transform="translate(0.000000,524.000000) scale(0.100000,-0.100000)"
fill="#000000" stroke="none">
<path d="M230 5234 c-37 -12 -100 -46 -100 -54 0 -9 -54 -66 -68 -72 -4 -1
-19 -21 -32 -43 l-25 -40 -3 -1405 c-2 -949 1 -1421 8 -1454 13 -60 66 -135
129 -181 51 -38 49 -37 107 -83 23 -17 46 -32 50 -32 5 0 27 -18 49 -40 22
-21 44 -39 49 -40 7 0 72 -47 102 -75 6 -5 22 -17 34 -25 38 -25 145 -103 150
-109 3 -3 29 -22 57 -41 29 -19 53 -38 53 -42 0 -3 22 -20 48 -36 27 -16 61
-41 76 -55 15 -14 53 -43 84 -64 31 -21 59 -41 62 -44 3 -3 34 -27 70 -52 62
-45 86 -63 139 -107 13 -11 27 -20 31 -20 4 0 26 -18 51 -40 24 -22 52 -42 61
-46 10 -3 18 -10 18 -15 0 -5 6 -9 13 -9 38 -1 186 -189 187 -237 0 -12 4 -25
10 -28 9 -6 26 -99 22 -122 -2 -7 2 -13 7 -13 7 0 12 -103 13 -302 l3 -303
615 -3 c338 -1 625 0 638 3 l22 5 0 320 c0 177 4 320 9 320 5 0 12 449 16
1025 6 791 5 1040 -5 1087 -16 84 -51 152 -119 233 -25 31 -136 125 -147 125
-7 0 -14 3 -16 8 -6 15 -339 162 -367 162 -5 0 -38 13 -73 28 -35 16 -79 35
-98 42 -43 16 -84 33 -132 54 -20 9 -40 16 -45 16 -6 0 -23 6 -39 14 -37 19
-148 65 -294 122 -63 25 -144 57 -180 71 -55 22 -75 25 -145 21 -93 -6 -137
-24 -240 -98 -100 -72 -107 -77 -134 -85 -22 -7 -23 -5 -17 21 4 16 8 33 9 38
5 24 98 127 109 120 4 -3 8 -1 8 4 0 5 32 24 70 41 l71 33 -3 436 c-3 490 0
469 -79 543 -21 20 -41 49 -45 65 -4 16 -12 34 -18 41 -6 6 -22 28 -36 48 -14
20 -44 47 -66 61 -23 13 -54 43 -70 65 -52 75 -138 128 -211 129 -23 0 -42 11
-72 40 -22 22 -45 40 -51 40 -5 0 -10 4 -10 9 0 23 -253 43 -310 25z"/>
<path d="M5752 5229 c-29 -7 -57 -25 -91 -58 -39 -40 -55 -50 -92 -53 -79 -9
-128 -42 -239 -162 -8 -9 -37 -35 -65 -58 -54 -44 -84 -89 -85 -128 -1 -18
-13 -33 -45 -53 -74 -47 -75 -52 -75 -559 0 -284 4 -438 10 -439 47 -6 157
-73 189 -116 11 -15 25 -33 30 -39 16 -20 28 -49 35 -84 3 -19 3 -30 -2 -24
-4 5 -22 16 -39 23 -18 8 -33 17 -33 22 0 5 -22 20 -48 33 -27 13 -54 32 -62
41 -8 9 -41 31 -74 48 -75 37 -195 49 -261 24 -76 -28 -300 -118 -340 -136
-22 -11 -51 -22 -65 -26 -14 -4 -53 -20 -88 -36 -35 -16 -68 -29 -73 -29 -5 0
-17 -4 -27 -9 -9 -5 -64 -28 -122 -52 -58 -23 -125 -51 -149 -61 -24 -11 -51
-21 -60 -23 -9 -2 -48 -16 -86 -33 -60 -26 -94 -40 -115 -47 -27 -9 -121 -58
-125 -65 -3 -5 -21 -17 -40 -26 -50 -23 -157 -134 -184 -191 -13 -26 -29 -55
-36 -63 -36 -44 -38 -95 -30 -1159 4 -570 11 -1041 16 -1047 5 -6 10 -152 11
-325 l3 -314 615 -3 c338 -1 625 0 638 3 l22 5 0 325 c0 205 4 326 10 330 6 3
10 16 10 28 1 12 9 40 20 62 11 22 19 46 20 53 0 6 4 12 9 12 5 0 12 12 15 26
10 40 164 185 264 249 25 16 33 22 93 70 31 25 61 45 67 45 6 0 12 3 14 8 2 4
23 23 48 42 25 19 50 39 57 45 7 5 19 16 27 23 8 6 19 12 25 12 5 0 29 18 53
40 23 22 51 42 61 45 9 4 17 11 17 16 0 5 5 9 10 9 6 0 44 26 85 58 140 107
180 137 228 169 26 18 55 40 64 49 9 8 34 27 56 41 22 14 52 36 66 49 14 13
29 24 33 24 3 0 13 6 20 13 7 6 49 39 93 72 108 81 135 105 151 137 7 14 20
32 27 40 37 36 37 48 37 1482 0 1368 -2 1476 -30 1476 -6 0 -10 6 -10 14 0 22
-77 103 -128 132 -42 25 -56 27 -167 30 -66 2 -139 -1 -163 -7z"/>
</g>
</svg>
